<svg id="Capa_1" enable-background="new 0 0 497 497" height="512" viewBox="0 0 497 497" width="512" xmlns="http://www.w3.org/2000/svg"><g><path d="m388 0h-279c-5.058 0-9.824 1.252-14.004 3.462-9.514 5.03-8.56 17.633-8.56 29.145l-1.531 430.809c0 16.57 13.43 30 30 30l266.17-1.234c11.512 0 28.433-1.663 33.464-11.177 2.21-4.18 3.462-8.946 3.462-14.004v-437.001c-.001-16.57-13.431-30-30.001-30z" fill="#aad8de"/><path d="m109 481h305.53c-5.02 9.52-15.02 16-26.53 16h-279c-16.57 0-30-13.43-30-30v-437c0-11.51 6.48-21.51 16-26.53v463.53c0 7.72 6.28 14 14 14z" fill="#94ccd4"/><path d="m112.597 461.904v-195.904l12.653-2.5h258c2.761 0 5 2.239 5 5v182.5l-3.614 12.415z" fill="#faf8f8"/><path d="m388.25 451v11c0 2.76-2.24 5-5 5h-269c-2.76 0-5-2.24-5-5v-193.5c0-2.76 2.24-5 5-5h11v187.5z" fill="#f0e9e6"/><path d="m385.387 230.323-272.791-.705v-195.187l12.654-4.431h258c2.761 0 5 2.239 5 5v182.5z" fill="#faf8f8"/><path d="m125.25 217.5v-187.5h-11c-2.76 0-5 2.24-5 5v193.5c0 2.76 2.24 5 5 5h269c2.76 0 5-2.24 5-5v-11z" fill="#f0e9e6"/><path d="m246.145 183.422-40.237-106.621c-.025-.069-.053-.138-.081-.206-1.541-3.746-5.152-6.165-9.202-6.165-.004 0-.008 0-.012 0-4.055.005-7.666 2.433-9.199 6.186-.023.056-.045.112-.066.168l-40.607 106.616c-1.475 3.871.469 8.204 4.34 9.678 3.865 1.475 8.203-.468 9.678-4.339l8.273-21.723h54.89l8.189 21.701c1.133 3.003 3.987 4.854 7.018 4.854.88 0 1.775-.156 2.647-.485 3.875-1.461 5.831-5.789 4.369-9.664zm-71.4-31.405 21.858-57.39 21.658 57.39z" fill="#5d748a"/><path d="m343.75 98.734c-4.143 0-7.5 3.358-7.5 7.5v7.446c-7.47-6.389-17.155-10.261-27.732-10.261-23.563 0-42.733 19.17-42.733 42.733s19.17 42.733 42.733 42.733c10.577 0 20.262-3.872 27.732-10.261v7.446c0 4.142 3.357 7.5 7.5 7.5s7.5-3.358 7.5-7.5v-79.835c0-4.143-3.357-7.501-7.5-7.501zm-35.232 75.151c-15.292 0-27.733-12.441-27.733-27.733s12.441-27.733 27.733-27.733 27.732 12.441 27.732 27.733-12.44 27.733-27.732 27.733z" fill="#5d748a"/><g fill="#f0e9e6"><path d="m354.25 312.333h-135.122c-4.143 0-7.5-3.358-7.5-7.5s3.357-7.5 7.5-7.5h135.122c4.143 0 7.5 3.358 7.5 7.5s-3.357 7.5-7.5 7.5z"/><path d="m184.128 312.333h-41.628c-4.143 0-7.5-3.358-7.5-7.5s3.357-7.5 7.5-7.5h41.628c4.143 0 7.5 3.358 7.5 7.5s-3.357 7.5-7.5 7.5z"/><path d="m355 404.583h-212.5c-4.143 0-7.5-3.358-7.5-7.5s3.357-7.5 7.5-7.5h212.5c4.143 0 7.5 3.358 7.5 7.5s-3.357 7.5-7.5 7.5z"/><path d="m355 373.833h-38.517c-4.143 0-7.5-3.358-7.5-7.5s3.357-7.5 7.5-7.5h38.517c4.143 0 7.5 3.358 7.5 7.5s-3.357 7.5-7.5 7.5z"/><path d="m281.483 373.833h-138.983c-4.143 0-7.5-3.358-7.5-7.5s3.357-7.5 7.5-7.5h138.983c4.143 0 7.5 3.358 7.5 7.5s-3.357 7.5-7.5 7.5z"/><path d="m244.5 435.333h-102c-4.143 0-7.5-3.358-7.5-7.5s3.357-7.5 7.5-7.5h102c4.143 0 7.5 3.358 7.5 7.5s-3.357 7.5-7.5 7.5z"/><path d="m354.5 343.083h-212c-4.143 0-7.5-3.358-7.5-7.5s3.357-7.5 7.5-7.5h212c4.143 0 7.5 3.358 7.5 7.5s-3.357 7.5-7.5 7.5z"/></g></g></svg>